<svg version="1.1" id="Layer_1" xmlns="http://www.w3.org/2000/svg" xmlns:xlink="http://www.w3.org/1999/xlink" x="0px" y="0px"
	 width="100%" viewBox="0 0 1336 566" enable-background="new 0 0 1336 566" xml:space="preserve">
<path fill="#FEFDFD" opacity="1.000000" stroke="none" 
	d="
M1013.000000,567.000000 
	C676.877380,567.000000 341.254822,566.988708 5.632279,567.125061 
	C1.328004,567.126770 0.903400,565.943726 0.905617,562.133423 
	C1.013507,376.657837 1.018166,191.182175 0.883168,5.706634 
	C0.880150,1.561172 1.827994,0.894649 5.792230,0.895644 
	C447.900818,1.006595 890.009399,1.009720 1332.118042,0.865758 
	C1336.665894,0.864277 1337.088745,2.197682 1337.086670,6.116755 
	C1336.987305,191.592346 1336.985352,377.067993 1337.101440,562.543579 
	C1337.103882,566.398987 1336.101318,567.090149 1332.457397,567.086487 
	C1226.138306,566.979675 1119.819214,567.000000 1013.000000,567.000000 
z"/>
<path fill="#010101" opacity="1.000000" stroke="none" 
	d="
M1076.000244,311.732727 
	C1111.496338,311.729614 1146.493042,311.818451 1181.488037,311.616974 
	C1186.330200,311.589142 1189.042847,312.863953 1191.584106,317.289185 
	C1234.528076,392.076019 1277.699219,466.732452 1320.815308,541.420471 
	C1321.718140,542.984558 1322.563110,544.581909 1323.735962,546.709473 
	C1121.259521,546.709473 919.278503,546.709473 717.158630,546.709473 
	C716.605957,545.037109 718.156616,543.876892 718.920959,542.547791 
	C735.604187,513.536865 752.417053,484.600098 768.986328,455.524445 
	C771.063232,451.879883 773.255676,450.551025 777.501282,450.555328 
	C901.987427,450.682251 1026.473633,450.658936 1150.959961,450.627380 
	C1152.550903,450.626984 1154.712646,451.464294 1155.625610,450.119263 
	C1156.667358,448.584381 1154.715698,447.160553 1153.941528,445.801422 
	C1147.597534,434.663849 1141.053955,423.638489 1134.831665,412.434235 
	C1133.078613,409.277618 1131.101196,408.126160 1127.426392,408.129944 
	C1020.105042,408.240265 912.783569,408.220459 805.462097,408.221497 
	C802.804688,408.221527 800.147339,408.221497 796.441284,408.221497 
	C871.132874,278.847870 945.460999,150.103882 1020.174133,20.693056 
	C1068.165649,103.821762 1115.713379,186.181793 1163.270752,268.558533 
	C1161.426636,269.732422 1159.904907,269.300171 1158.470215,269.301270 
	C1124.640625,269.326813 1090.810791,269.257416 1056.981812,269.404144 
	C1053.341187,269.419952 1051.393066,268.339233 1049.588257,265.138336 
	C1040.105225,248.320358 1030.339478,231.661758 1020.166199,214.073318 
	C1001.294983,246.753616 982.745300,278.877167 963.772949,311.732727 
	C1001.641052,311.732727 1038.570557,311.732727 1076.000244,311.732727 
z"/>
<path fill="#010101" opacity="1.000000" stroke="none" 
	d="
M468.292542,199.694824 
	C433.931366,140.166641 399.760895,80.950989 365.502563,21.583035 
	C367.253754,20.484503 368.758606,20.871723 370.164825,20.871546 
	C507.139923,20.854118 644.115051,20.871767 781.090088,20.766483 
	C784.774841,20.763653 786.612671,21.993786 788.404663,25.113035 
	C817.929138,76.505188 847.571289,127.829834 877.273193,179.119720 
	C878.754211,181.677246 879.114136,183.547348 877.516235,186.311096 
	C808.517883,305.650757 739.611572,425.043610 670.688660,544.426941 
	C670.290771,545.115967 669.816711,545.761047 668.889587,547.168213 
	C601.887878,431.102142 535.185547,315.554749 468.292542,199.694824 
z"/>
<path fill="#010101" opacity="1.000000" stroke="none" 
	d="
M472.999939,547.146606 
	C320.020355,547.146606 167.540771,547.146606 13.888680,547.146606 
	C115.265190,371.549500 216.256226,196.620056 317.256622,21.674448 
	C319.264923,21.814955 319.437836,23.587526 320.105011,24.739220 
	C337.296783,54.417393 354.408112,84.142258 371.655731,113.787842 
	C373.194611,116.432968 373.163483,118.350876 371.634399,120.995308 
	C309.126221,229.097229 246.696976,337.244781 184.257996,445.386749 
	C183.841721,446.107697 183.484543,446.870178 183.004913,447.545929 
	C180.967270,450.416718 182.449646,450.891602 185.069824,450.652405 
	C185.565384,450.607178 186.069092,450.653839 186.569046,450.653870 
	C274.561646,450.660065 362.554230,450.665833 450.546814,450.671661 
	C451.506439,450.671722 452.466095,450.671661 454.394562,450.671661 
	C446.037445,436.136475 438.064453,422.269318 430.158905,408.519501 
	C431.153564,407.251129 432.216156,407.641907 433.138306,407.641479 
	C467.802032,407.625519 502.465820,407.649994 537.129456,407.601410 
	C539.807434,407.597656 541.588562,408.077271 543.123962,410.751892 
	C568.572815,455.083221 594.171082,499.328796 619.706360,543.610535 
	C620.248291,544.550293 621.329712,545.382141 620.688049,547.146606 
	C571.713928,547.146606 522.606934,547.146606 472.999939,547.146606 
z"/>
<path fill="#EA2127" opacity="1.000000" stroke="none" 
	d="
M299.030457,331.056824 
	C330.835815,275.910828 362.469757,221.087814 394.156250,166.295181 
	C395.268860,164.371246 395.840759,161.128143 398.192505,161.163177 
	C400.111206,161.191757 400.722870,164.339874 401.778259,166.165787 
	C439.120026,230.770355 476.430054,295.393311 513.718750,360.028503 
	C514.525940,361.427582 516.340515,362.935913 515.563293,364.412140 
	C514.611633,366.219727 512.267639,365.252197 510.559265,365.253540 
	C461.233063,365.292145 411.906860,365.272919 362.580627,365.268829 
	C356.502472,365.268341 356.441284,365.318512 359.443237,370.556427 
	C365.903076,381.827728 372.380524,393.089691 378.968262,404.286316 
	C380.701141,407.231598 380.357025,408.279541 376.746796,408.273346 
	C336.919342,408.205231 297.091736,408.222168 257.264191,408.199249 
	C256.655060,408.198914 256.046051,407.985596 254.762283,407.745483 
	C269.606415,382.045410 284.237000,356.715088 299.030457,331.056824 
z"/>
<path fill="#E92228" opacity="1.000000" stroke="none" 
	d="
M899.000000,20.866898 
	C922.311890,20.868425 945.123901,20.917116 967.935425,20.823214 
	C971.566040,20.808270 972.827454,21.248833 970.618469,25.054276 
	C949.062073,62.189392 927.628540,99.395798 906.138245,136.569305 
	C905.495056,137.681763 905.093689,139.062302 903.241028,139.703568 
	C880.591125,100.468689 857.909912,61.179562 834.637817,20.866911 
	C856.489136,20.866911 877.494568,20.866911 899.000000,20.866898 
z"/>
<path fill="#FDFDFD" opacity="1.000000" stroke="none" 
	d="
M681.786621,331.800446 
	C677.549622,339.125366 673.491943,346.131042 668.984619,353.913055 
	C623.361694,274.904236 578.143982,196.597321 532.938538,118.311562 
	C534.269287,116.645844 535.867310,117.375160 537.200928,117.374214 
	C599.993835,117.329895 662.786865,117.365990 725.579590,117.253288 
	C728.891968,117.247345 730.600342,118.321976 732.198914,121.127159 
	C743.320251,140.643082 754.557739,160.093918 765.929688,179.464798 
	C767.548157,182.221771 767.114075,184.154602 765.648132,186.685257 
	C737.706482,234.923004 709.844482,283.206909 681.786621,331.800446 
z"/>
</svg>