<?xml version="1.0" encoding="UTF-8"?>
<svg version="1.1" xmlns="http://www.w3.org/2000/svg" width="668" height="283">
<path d="M0 0 C0.99 0 1.98 0 3 0 C3.40613525 0.7120459 3.81227051 1.4240918 4.23071289 2.15771484 C13.49191534 18.39045455 22.7907986 34.60059805 32.14111328 50.78222656 C34.63722164 55.10304455 37.1307209 59.42536522 39.62402344 63.74780273 C40.87059962 65.90887006 42.11734331 68.06984076 43.36425781 70.23071289 C46.55369112 75.75797912 49.74125949 81.28630861 52.92578125 86.81640625 C54.22131657 89.06512583 55.51688896 91.31382405 56.8125 93.5625 C57.43326416 94.64080078 58.05402832 95.71910156 58.69360352 96.83007812 C61.4911637 101.68241733 64.30120151 106.52569306 67.1640625 111.33984375 C67.63739014 112.13640381 68.11071777 112.93296387 68.59838867 113.75366211 C69.4642552 115.2061394 70.33395536 116.65634118 71.20825195 118.10375977 C74 122.78197057 74 122.78197057 74 125 C66.81416818 125.56070276 59.63313733 125.98453055 52.429739 126.24349213 C49.07867859 126.36807958 45.75395086 126.54863177 42.40917969 126.81054688 C24.56017417 128.17225111 24.56017417 128.17225111 17 125 C9.98243945 118.5884526 6.37551598 109.71048158 3 101 C2.67 100.34 2.34 99.68 2 99 C-2.77450154 105.86232333 -6.90390479 112.99522992 -10.9375 120.3125 C-12.11217788 122.434205 -13.28795737 124.55530048 -14.46484375 126.67578125 C-14.976521 127.60302002 -15.48819824 128.53025879 -16.01538086 129.4855957 C-18.93040717 134.70244501 -21.98032988 139.84333862 -25 145 C-24.15019971 144.98755579 -24.15019971 144.98755579 -23.28323174 144.97486019 C-9.48680125 144.77594597 4.30937749 144.62767092 18.1069355 144.53369045 C24.77958313 144.48671306 31.45099514 144.42299478 38.12304688 144.32104492 C44.56164592 144.2232776 50.99924978 144.16944617 57.43853378 144.14610481 C59.89547269 144.12947081 62.35235688 144.09698715 64.80887222 144.04842949 C68.25024444 143.98310782 71.68750244 143.9740967 75.12939453 143.97827148 C76.65393501 143.92973526 76.65393501 143.92973526 78.20927429 143.88021851 C84.98258844 143.96915674 84.98258844 143.96915674 87.93959045 146.96519661 C89.48464276 149.25234811 90.77407701 151.52969582 92 154 C92.59651367 155.00546875 93.19302734 156.0109375 93.80761719 157.046875 C94.5447998 158.38492188 94.5447998 158.38492188 95.296875 159.75 C96.13786743 161.26678345 96.13786743 161.26678345 96.99584961 162.81420898 C97.57471924 163.86552002 98.15358887 164.91683105 98.75 166 C102.74175824 173.18892621 106.73998644 180.36636563 110.9375 187.4375 C117.0585447 197.75379596 123.02775585 208.15714117 129.01367188 218.55224609 C131.67113285 223.16491374 134.33305647 227.77499564 136.99511719 232.38500977 C138.88371461 235.65682202 140.77021331 238.9298361 142.65625 242.203125 C144.66964826 245.69709652 146.68896049 249.18740302 148.71875 252.671875 C149.45834707 253.9479087 150.19793184 255.22394954 150.9375 256.5 C151.54464844 257.5415625 152.15179687 258.583125 152.77734375 259.65625 C154 262 154 262 154 264 C53.35 264 -47.3 264 -151 264 C-148.6664768 258.16619199 -145.702559 252.90465394 -142.625 247.4375 C-142.06683594 246.43525391 -141.50867188 245.43300781 -140.93359375 244.40039062 C-139.7348037 242.26347458 -138.48647524 240.15373697 -137.19491577 238.07157898 C-135.45777168 235.10671665 -134.43681998 232.28033725 -133.47842407 228.98603821 C-131.28682484 222.69286038 -128.64814751 217.76772013 -123 214 C-110.79952226 209.77618614 -95.88462246 211.62264446 -83.21481609 211.97212124 C-77.89422078 212.09767108 -72.57337385 212.10893489 -67.25152588 212.13262939 C-57.18814942 212.19464686 -47.12914979 212.35854379 -37.06769586 212.55961919 C-25.6075551 212.7836446 -14.14719834 212.89324692 -2.68541098 212.99352789 C20.87881384 213.20224419 44.43916112 213.55372063 68 214 C66.20626095 206.50480561 63.3459948 199.67816229 57 195 C45.91524692 191.46336408 33.44864503 192.59865909 21.96057916 192.87158608 C17.28153963 192.96264523 12.60288456 192.94541407 7.92314148 192.93998718 C-0.92508994 192.94601979 -9.76943077 193.04851753 -18.61648542 193.18625563 C-28.69375115 193.3384074 -38.77059268 193.38215512 -48.84884012 193.41709387 C-69.56766476 193.49133441 -90.28328311 193.70074869 -111 194 C-110.06691809 192.11380732 -109.13147286 190.22878366 -108.19506836 188.34423828 C-107.41407021 186.76946213 -107.41407021 186.76946213 -106.61729431 185.16287231 C-104.12351817 180.28590251 -101.35509721 175.58522083 -98.5625 170.875 C-97.32231764 168.76597714 -96.08275562 166.65658939 -94.84375 164.546875 C-94.20953125 163.46857422 -93.5753125 162.39027344 -92.921875 161.27929688 C-89.77515892 155.91005267 -86.66841381 150.51791809 -83.5625 145.125 C-82.94060791 144.04589355 -82.31871582 142.96678711 -81.67797852 141.85498047 C-80.41550269 139.66417049 -79.15321444 137.4732524 -77.89111328 135.28222656 C-74.76319852 129.85340058 -71.63141552 124.42680719 -68.5 119 C-67.24998121 116.83334417 -65.99998122 114.6666775 -64.75 112.5 C-27.25 47.5 -27.25 47.5 -25.37158203 44.24414062 C-24.13289998 42.09704864 -22.8942921 39.94991386 -21.65576172 37.80273438 C-18.7146665 32.70411191 -15.77278587 27.60594704 -12.82830811 22.50927734 C-11.43041399 20.08952335 -10.03293911 17.66952737 -8.63549805 15.24951172 C-7.64347676 13.53198948 -6.65084571 11.81481948 -5.65820312 10.09765625 C-5.06201172 9.06511719 -4.46582031 8.03257813 -3.8515625 6.96875 C-3.32385254 6.05544922 -2.79614258 5.14214844 -2.25244141 4.20117188 C-1.46663489 2.82011309 -0.71060752 1.42121505 0 0 Z " fill="#000000" transform="translate(508,10)"/>
<path d="M0 0 C27.26794307 -0.56140658 54.53501685 -0.98422219 81.80758095 -1.24349213 C94.47199642 -1.36709609 107.13281565 -1.53548624 119.79492188 -1.81054688 C130.83557504 -2.0502695 141.87362423 -2.20470721 152.91680753 -2.25812387 C158.76229915 -2.28934257 164.60034437 -2.36228398 170.44343948 -2.53752136 C207.11113738 -3.59576623 207.11113738 -3.59576623 214.30042648 2.35663605 C219.31764433 7.95147979 221.99908358 14.0723328 224.12260151 21.21754169 C225.28876118 24.91573663 227.00121372 27.79051497 229.0859375 31.046875 C232.39163296 36.77290686 235.68881681 42.50383927 238.98468018 48.23553467 C240.05108424 50.08877634 241.11891089 51.94119281 242.18701172 53.79345703 C244.04075472 57.0085788 245.89095302 60.22571762 247.73883057 63.44421387 C248.44796308 64.67817136 249.15818838 65.91150157 249.86956787 67.14416504 C250.8601582 68.86125098 251.84618652 70.58096629 252.83203125 72.30078125 C253.39639893 73.28216064 253.9607666 74.26354004 254.54223633 75.2746582 C257.32187361 80.47129042 257.32187361 80.47129042 258 83 C257.17993164 85.3581543 257.17993164 85.3581543 255.66015625 87.82421875 C254.81916382 89.22293213 254.81916382 89.22293213 253.96118164 90.64990234 C253.3346167 91.65230957 252.70805176 92.6547168 252.0625 93.6875 C250.74893909 95.86003599 249.43647535 98.03323566 248.125 100.20703125 C247.44050781 101.32932129 246.75601563 102.45161133 246.05078125 103.60791016 C242.80227777 108.9810896 239.6848707 114.42789028 236.5625 119.875 C235.30383608 122.06015548 234.04471886 124.24504992 232.78515625 126.4296875 C231.84760498 128.05729004 231.84760498 128.05729004 230.89111328 129.71777344 C227.76319852 135.14659942 224.63141552 140.57319281 221.5 146 C220.24998121 148.16665583 218.99998122 150.3333225 217.75 152.5 C196.5 189.33333333 175.25 226.16666667 154 263 C152.68 263 151.36 263 150 263 C149.59386475 262.2879541 149.18772949 261.5759082 148.76928711 260.84228516 C136.62243981 239.55167937 124.43724317 218.28425061 112.0625 197.125 C106.32256807 187.30855493 100.6667672 177.44534606 95.03369141 167.56738281 C88.68237863 156.43131115 82.27749144 145.32652203 75.86328125 134.2265625 C73.9796495 130.96475993 72.09877679 127.70138156 70.21875 124.4375 C64.19560261 113.98287049 58.15477555 103.53951558 52.0625 93.125 C46.64078822 83.85500223 41.29795085 74.54168248 35.98077393 65.21154785 C31.3422437 57.07429301 26.66551539 48.96069857 21.9375 40.875 C21.38046387 39.92085205 20.82342773 38.9667041 20.24951172 37.98364258 C17.8152375 33.81444944 15.37996687 29.64587741 12.93505859 25.48291016 C11.16732663 22.47232016 9.40620204 19.4579447 7.6489563 16.44122314 C6.64417272 14.720337 5.63257462 13.00343549 4.62084961 11.28662109 C4.01635986 10.24715332 3.41187012 9.20768555 2.7890625 8.13671875 C2.24975098 7.21592529 1.71043945 6.29513184 1.15478516 5.34643555 C0 3 0 3 0 0 Z M85 50 C85.95243579 51.74652147 86.90491897 53.49301709 87.85742188 55.23950195 C88.38783081 56.2120845 88.91823975 57.18466705 89.46472168 58.1867218 C95.93131629 70.03625383 102.57835239 81.76426138 109.40429688 93.41088867 C113.99003643 101.24363165 118.50745008 109.11364518 123 117 C128.16667811 126.06606961 133.36636896 135.11181948 138.625 144.125 C139.18058594 145.07761719 139.73617187 146.03023438 140.30859375 147.01171875 C143.82939259 153.03391238 147.39812575 159.02596272 151 165 C155.33751396 163.55416201 156.29362672 160.28157201 158.3125 156.4375 C159.20844659 154.7786002 160.10702299 153.12111882 161.0078125 151.46484375 C161.49024414 150.57651855 161.97267578 149.68819336 162.46972656 148.77294922 C165.12290956 143.96521908 167.90750782 139.2351729 170.6875 134.5 C176.41969014 124.71639838 182.10500138 114.90701164 187.76245117 105.08007812 C188.636073 103.56317383 188.636073 103.56317383 189.52734375 102.015625 C190.09179199 101.02626953 190.65624023 100.03691406 191.23779297 99.01757812 C192.46512599 96.91591061 193.73320154 94.83773196 195.03173828 92.77929688 C195.68255371 91.73322266 196.33336914 90.68714844 197.00390625 89.609375 C197.60146729 88.67577148 198.19902832 87.74216797 198.81469727 86.78027344 C200.31180341 83.26862673 200.07149207 81.63991299 199 78 C197.55968555 74.89764546 197.55968555 74.89764546 195.69140625 71.796875 C195.20123268 70.9510788 195.20123268 70.9510788 194.70115662 70.0881958 C194.01367852 68.90587821 193.32179634 67.72611145 192.62573242 66.54882812 C191.56037997 64.74641323 190.50863967 62.9365928 189.45898438 61.125 C186.19456675 55.215067 186.19456675 55.215067 182 50 C178.92612331 49.81154873 175.94295151 49.74838249 172.86865234 49.77294922 C171.44906975 49.77251114 171.44906975 49.77251114 170.00080872 49.77206421 C166.86242609 49.7734612 163.72427882 49.78903976 160.5859375 49.8046875 C158.4140333 49.80841632 156.24212743 49.81126391 154.07022095 49.81326294 C148.34581888 49.82090973 142.62151784 49.84056719 136.89715576 49.8626709 C131.05905525 49.88310683 125.22093845 49.89225983 119.3828125 49.90234375 C107.92183054 49.9238121 96.46092366 49.95796063 85 50 Z " fill="#000000" transform="translate(182,9)"/>
<path d="M0 0 C0.99 0 1.98 0 3 0 C3.35602295 0.64211426 3.7120459 1.28422852 4.07885742 1.94580078 C5.77866624 5.00725078 7.4830139 8.06615172 9.1875 11.125 C10.12142578 12.80783081 10.12142578 12.80783081 11.07421875 14.5246582 C14.24393475 20.20386585 17.46558936 25.8190424 20.89453125 31.34765625 C21.50079346 32.3329834 22.10705566 33.31831055 22.73168945 34.33349609 C23.89141576 36.20526201 25.06786558 38.06679096 26.26245117 39.91650391 C30.08164073 46.10905118 30.08164073 46.10905118 29.73046875 49.94140625 C29.15941406 50.95074219 28.58835938 51.96007813 28 53 C27.37762451 54.13248169 27.37762451 54.13248169 26.74267578 55.2878418 C25.14790435 58.13934808 23.48643637 60.94426342 21.8125 63.75 C20.53580222 65.91367549 19.25978329 68.07775166 17.984375 70.2421875 C16.9953418 71.91619629 16.9953418 71.91619629 15.98632812 73.62402344 C12.81074644 79.0212633 9.6862344 84.44764 6.5625 89.875 C5.30341652 92.05991376 4.04430177 94.24480949 2.78515625 96.4296875 C1.84760498 98.05729004 1.84760498 98.05729004 0.89111328 99.71777344 C-2.23680148 105.14659942 -5.36858448 110.57319281 -8.5 116 C-9.75001879 118.16665583 -11.00001878 120.3333225 -12.25 122.5 C-16 129 -16 129 -19.75 135.5 C-20.36883057 136.57266113 -20.98766113 137.64532227 -21.62524414 138.75048828 C-22.87435518 140.91557071 -24.12354129 143.08060982 -25.37280273 145.24560547 C-28.51202309 150.68615706 -31.64990563 156.12747216 -34.78515625 161.5703125 C-41.60221524 173.40125948 -48.44113336 185.21852494 -55.34594727 196.99853516 C-56.15310181 198.3779126 -56.15310181 198.3779126 -56.9765625 199.78515625 C-57.44143066 200.57801025 -57.90629883 201.37086426 -58.38525391 202.18774414 C-60.63232284 206.10125897 -62.80841462 210.05514631 -65 214 C-21.11 214 22.78 214 68 214 C64.37 207.73 60.74 201.46 57 195 C57 194.34 57 193.68 57 193 C64.18583182 192.43929724 71.36686267 192.01546945 78.570261 191.75650787 C81.92132141 191.63192042 85.24604914 191.45136823 88.59082031 191.18945312 C106.24933457 189.84228151 106.24933457 189.84228151 114 193 C120.36150504 198.60053108 123.58059118 206.40167963 126.76733398 214.09393311 C128.31689152 217.74708636 130.19255445 220.98009618 132.26171875 224.36328125 C133.40436725 226.34593858 134.54632183 228.32899602 135.6875 230.3125 C139.23791538 236.48291568 142.78957236 242.65192569 146.390625 248.79296875 C146.90794189 249.67750732 147.42525879 250.5620459 147.95825195 251.47338867 C148.91934869 253.11497807 149.8838427 254.75458489 150.85229492 256.3918457 C154 261.77692283 154 261.77692283 154 264 C53.35 264 -47.3 264 -151 264 C-149.52567141 259.57701424 -148.29659767 256.47409784 -146.015625 252.5703125 C-145.41758057 251.5405127 -144.81953613 250.51071289 -144.20336914 249.44970703 C-143.55875732 248.35255371 -142.91414551 247.25540039 -142.25 246.125 C-141.5716745 244.96107166 -140.89386723 243.79684117 -140.21655273 242.63232422 C-138.48216421 239.65332543 -136.74148059 236.67806456 -134.99847412 233.70410156 C-132.34809866 229.18069042 -129.7063649 224.65221817 -127.0625 220.125 C-126.49499023 219.15449707 -125.92748047 218.18399414 -125.34277344 217.18408203 C-120.50015122 208.89038013 -115.7344412 200.55378736 -110.97976685 192.20953369 C-105.80621213 183.13221364 -100.56857846 174.09428467 -95.2890625 165.078125 C-90.80833735 157.41426026 -86.39505776 149.71314165 -82 142 C-76.46014067 132.27875494 -70.86625068 122.59105132 -65.21655273 112.93310547 C-59.06233258 102.40915375 -52.97630004 91.84619863 -46.89111328 81.28222656 C-43.76319852 75.85340058 -40.63141552 70.42680719 -37.5 65 C-36.24998121 62.83334417 -34.99998122 60.6666775 -33.75 58.5 C-22.5 39 -11.25 19.5 0 0 Z " fill="#000000" transform="translate(157,10)"/>
<path d="M0 0 C3.1975539 2.9433916 5.27698333 5.88779138 7.3984375 9.671875 C8.03523438 10.79851562 8.67203125 11.92515625 9.328125 13.0859375 C9.66134766 13.68245117 9.99457031 14.27896484 10.33789062 14.89355469 C11.7542057 17.42878535 13.18471198 19.95590673 14.61456299 22.48352051 C15.34764791 23.77959081 16.08002516 25.07606164 16.81170654 26.3729248 C20.14896414 32.28327101 23.56455245 38.14622395 27 44 C32.83624145 53.96319012 38.57644858 63.9787988 44.28515625 74.01538086 C47.22748357 79.18339897 50.18333142 84.34046104 53.234375 89.4453125 C53.70842773 90.23881104 54.18248047 91.03230957 54.67089844 91.84985352 C55.52748179 93.27586654 56.38969826 94.6985184 57.25878906 96.11694336 C60 100.67423652 60 100.67423652 60 104 C34.26 104.33 8.52 104.66 -18 105 C-14.7 110.61 -11.4 116.22 -8 122 C-8 122.99 -8 123.98 -8 125 C-29.12 125 -50.24 125 -72 125 C-64.02996845 109.05993691 -64.02996845 109.05993691 -60.5 103.25 C-59.63941506 101.80931581 -58.78012918 100.36785515 -57.921875 98.92578125 C-57.22674805 97.75909912 -57.22674805 97.75909912 -56.51757812 96.56884766 C-53.5525038 91.549782 -50.65655387 86.49059801 -47.75 81.4375 C-42.88263955 72.98311584 -37.98968475 64.54464989 -33.0625 56.125 C-27.87737299 47.26285057 -22.76891721 38.3592914 -17.6875 29.4375 C-2.13211013 2.13211013 -2.13211013 2.13211013 0 0 Z " fill="#EA1F26" transform="translate(198,79)"/>
<path d="M0 0 C22.77 0 45.54 0 69 0 C68.11921387 4.40393064 67.34180565 6.53098371 65.1484375 10.26171875 C64.5512793 11.2863623 63.95412109 12.31100586 63.33886719 13.36669922 C62.69079102 14.46256348 62.04271484 15.55842773 61.375 16.6875 C60.36122422 18.42086457 59.34746141 20.15423689 58.33447266 21.88806152 C57.63263486 23.08825006 56.9298216 24.28786866 56.22607422 25.48693848 C53.71704079 29.76240225 51.23710787 34.05372309 48.7734375 38.35546875 C48.43367889 38.94802963 48.09392029 39.54059052 47.74386597 40.15110779 C46.10651964 43.00682589 44.47082336 45.86347003 42.83740234 48.72143555 C41.95109131 50.26311401 41.95109131 50.26311401 41.046875 51.8359375 C40.52963867 52.73876465 40.01240234 53.6415918 39.47949219 54.57177734 C38.09412911 56.8455102 36.731269 58.97586487 35 61 C34.34 61 33.68 61 33 61 C32.67950684 60.42894531 32.35901367 59.85789063 32.02880859 59.26953125 C25.07623068 46.89409012 18.04797922 34.56891261 10.84716797 22.3359375 C8.0526346 17.57591841 5.28892073 12.79924381 2.58984375 7.984375 C2.09218506 7.09975586 1.59452637 6.21513672 1.08178711 5.30371094 C0 3 0 3 0 0 Z " fill="#EA2026" transform="translate(417,9)"/>
<path d="M0 0 C0.66 0 1.32 0 2 0 C2.83848804 1.45537568 3.67063934 2.91440373 4.5 4.375 C5.19609375 5.59316406 5.19609375 5.59316406 5.90625 6.8359375 C7 9 7 9 7 11 C6.34 11 5.68 11 5 11 C4.16151196 9.54462432 3.32936066 8.08559627 2.5 6.625 C1.80390625 5.40683594 1.80390625 5.40683594 1.09375 4.1640625 C0 2 0 2 0 0 Z " fill="#E2232B" transform="translate(215,109)"/>
</svg>
